# xmcd
#
# Track frame offsets: 
#        150
#        16622
#        31047
#        45567
#        59109
#        84397
#        105964
#        119119
#        132553
#        152308
#        167565
#        198634
#
# Disc length: 3261 seconds
#
# Revision: 2
# Processed by: cddbd v1.5.2PL0 Copyright (c) Steve Scherf et al.
# Submitted via: ExactAudioCopy v1.0b3
#
DISCID=930cbb0c
DTITLE=Junior Brown - Down Home Chrome
DYEAR=2004
DGENRE=Country
TTITLE0=Little Rivi-Airhead
TTITLE1=It Hurts When I Do That
TTITLE2=Where Has All the Money Gone?
TTITLE3=The Bridge Washed Out
TTITLE4=Hill Country Hot Rod Man
TTITLE5=Jimmy Jones
TTITLE6=Let's Go Back
TTITLE7=Two Rons Don't Make It Right
TTITLE8=You Inspire Me
TTITLE9=Are You Just Cuttin' Up?
TTITLE10=Foxy Lady
TTITLE11=Monkey Wrench Blues
EXTD=YEAR: 2004
EXTT0=
EXTT1=
EXTT2=
EXTT3=
EXTT4=
EXTT5=
EXTT6=
EXTT7=
EXTT8=
EXTT9=
EXTT10=
EXTT11=
PLAYORDER=
